<svg xmlns="http://www.w3.org/2000/svg" viewBox="0 0 200.42 177.62"><defs><style>.cls-1{fill:none;}.cls-2{fill:#5ec1ce;}.cls-3{fill:#e9408f;}.cls-4{fill:#46b381;}</style></defs><title>Logo Outline no text</title><g id="Layer_2" data-name="Layer 2"><g id="Layer_1-2" data-name="Layer 1"><path class="cls-1" d="M146.42,102.66v46.4a37.53,37.53,0,0,0,45-36.76V46.51a37.52,37.52,0,0,0-75,0V59.16A46.53,46.53,0,0,1,146.42,102.66Z"/><path class="cls-1" d="M46.52,9A37.56,37.56,0,0,0,9,46.51V112.3a37.5,37.5,0,0,0,47.72,36.09,46.39,46.39,0,0,1-3.33-17.28V102.66A46.54,46.54,0,0,1,84,58.93V46.51A37.56,37.56,0,0,0,46.52,9Z"/><path class="cls-2" d="M46.51,149.81A37.56,37.56,0,0,1,9,112.3V46.51a37.52,37.52,0,0,1,75,0V58.93a46.53,46.53,0,0,1,9-2.27V46.51A46.52,46.52,0,0,0,46.52,0h0A46.52,46.52,0,0,0,0,46.51V112.3a46.51,46.51,0,0,0,46.51,46.51h0A46.48,46.48,0,0,0,61,156.52a47.12,47.12,0,0,1-4.23-8.13A37.41,37.41,0,0,1,46.51,149.81Z"/><path class="cls-3" d="M153.9,0h0a46.51,46.51,0,0,0-46.51,46.51V56.76a46.07,46.07,0,0,1,9,2.4V46.51a37.52,37.52,0,0,1,75,0V112.3a37.53,37.53,0,0,1-45,36.76v9.15a47.38,47.38,0,0,0,7.48.6h0a46.51,46.51,0,0,0,46.52-46.51V46.51A46.52,46.52,0,0,0,153.9,0Z"/><path class="cls-4" d="M99.91,65.15a37.56,37.56,0,0,1,37.51,37.51v66H99.91a37.56,37.56,0,0,1-37.52-37.51V102.66A37.56,37.56,0,0,1,99.91,65.15m0-9h0a46.51,46.51,0,0,0-46.52,46.51v28.45a46.51,46.51,0,0,0,46.52,46.51h43.18a3.33,3.33,0,0,0,3.33-3.33V102.66A46.51,46.51,0,0,0,99.91,56.15Z"/></g></g></svg>