<svg xmlns="http://www.w3.org/2000/svg" viewBox="0 0 703.91 177.62"><defs><style>.cls-1{fill:#3c3c3b;}.cls-2{fill:#46b381;}.cls-3{fill:#5ec1ce;}.cls-4{fill:#e9408f;}</style></defs><title>logofilledwithtext</title><g id="Layer_2" data-name="Layer 2"><g id="Layer_1-2" data-name="Layer 1"><path class="cls-1" d="M250.68,120.9l8.9-20.14a56.19,56.19,0,0,0,27.05,7.49c7.84,0,10.65-1.64,10.65-4.45,0-10.3-45.31-2-45.31-32.55,0-15.22,12.76-27.63,38.17-27.63,11,0,22.36,2.35,30.91,7.15l-8.31,20c-8.08-4.1-15.69-6.09-22.83-6.09-8.08,0-10.66,2.34-10.66,5.15,0,9.83,45.31,1.64,45.31,31.85,0,15-12.76,27.63-38.17,27.63C272.7,129.33,258.88,125.93,250.68,120.9Z"/><path class="cls-1" d="M389.54,127.57v15.69H361.91V127.57c-19.32-5-32.43-20.84-32.43-41.1,0-24.82,19.55-42.85,46.25-42.85S422,61.65,422,86.47C422,106.73,408.86,122.54,389.54,127.57Zm4.57-41.1c0-12.76-8.2-20.48-18.38-20.48s-18.38,7.72-18.38,20.48S365.54,107,375.73,107,394.11,99.24,394.11,86.47Z"/><path class="cls-1" d="M511.19,45.5v82H484.38v-8.78c-5.27,6.79-12.88,10.66-22.71,10.66-19.09,0-30.33-13-30.33-36.42V45.5H459V92.09c0,10.31,4.81,14.87,11.95,14.87,6.91,0,12.64-4.91,12.64-15.8V45.5Z"/><path class="cls-1" d="M604.63,83.78v43.67H577V110.94H551v16.51H523.84V83.78c0-25.64,16.51-40.16,40.39-40.16S604.63,58.14,604.63,83.78ZM577,90.1V81.44C577,70.9,571.49,66,564,66s-13,4.91-13,15.45V90.1Z"/><path class="cls-1" d="M617.27,45.5h40.39c27.4,0,46.25,15.57,46.25,41s-18.85,41-46.25,41H617.27Zm39.22,60.41c11.6,0,19.56-6.91,19.56-19.44S668.09,67,656.49,67H644.9v38.87Z"/><path class="cls-2" d="M85.69,70.37h28.44a46.51,46.51,0,0,1,46.51,46.51v0a46.51,46.51,0,0,1-46.51,46.51H42.51a3.33,3.33,0,0,1-3.33-3.33V116.88A46.51,46.51,0,0,1,85.69,70.37Z" transform="translate(-16.98 216.79) rotate(-90)"/><path class="cls-3" d="M46.26,102.66A53.71,53.71,0,0,1,93,49.48v-3A46.52,46.52,0,0,0,46.52,0h0A46.52,46.52,0,0,0,0,46.52V112.3a46.51,46.51,0,0,0,46.52,46.51h0a46.82,46.82,0,0,0,7.15-.55,53.29,53.29,0,0,1-7.41-27.15Z"/><path class="cls-4" d="M153.9,0h0a46.51,46.51,0,0,0-46.51,46.52v3a53.72,53.72,0,0,1,46.16,53.11V158.8h.35a46.51,46.51,0,0,0,46.52-46.51V46.52A46.52,46.52,0,0,0,153.9,0Z"/></g></g></svg>